<?xml version="1.0" encoding="UTF-8"?>
<svg version="1.2" baseProfile="tiny-ps" xmlns="http://www.w3.org/2000/svg" width="200" height="65">
<title>Logo SVG</title><path d="M0 0 C0.55171875 0.46792969 1.1034375 0.93585937 1.671875 1.41796875 C0.17351395 4.5299494 -1.52746258 7.47143025 -3.328125 10.41796875 C-2.503125 10.87171875 -1.678125 11.32546875 -0.828125 11.79296875 C1.95279771 14.7129376 2.145839 15.48296457 2.359375 19.35546875 C2.22621842 22.17672385 2.08718492 23.84432192 0.421875 26.14453125 C-4.25239837 30.14103498 -8.63929945 30.80254556 -14.54296875 30.78515625 C-19.32473854 30.1547406 -23.23059362 27.85905127 -27.328125 25.41796875 C-26.57245448 21.63166173 -25.20215227 20.01386435 -22.328125 17.41796875 C-21.420625 17.74796875 -20.513125 18.07796875 -19.578125 18.41796875 C-16.25766693 19.61402598 -16.25766693 19.61402598 -12.328125 19.41796875 C-13.08738281 19.16402344 -13.84664062 18.91007812 -14.62890625 18.6484375 C-15.62277344 18.30425781 -16.61664063 17.96007812 -17.640625 17.60546875 C-18.62675781 17.26902344 -19.61289063 16.93257812 -20.62890625 16.5859375 C-23.19942259 15.47365908 -24.55004477 14.53588684 -26.328125 12.41796875 C-27.070625 13.05734375 -27.813125 13.69671875 -28.578125 14.35546875 C-31.11607962 16.25893471 -32.34597681 16.81261816 -35.328125 17.41796875 C-35.02777344 18.10503906 -34.72742188 18.79210937 -34.41796875 19.5 C-34.03769531 20.40105469 -33.65742188 21.30210938 -33.265625 22.23046875 C-32.88277344 23.12378906 -32.49992187 24.01710938 -32.10546875 24.9375 C-31.328125 27.41796875 -31.328125 27.41796875 -32.328125 30.41796875 C-34.12071058 30.33103734 -35.91227644 30.22286371 -37.703125 30.10546875 C-39.19972656 30.01845703 -39.19972656 30.01845703 -40.7265625 29.9296875 C-42.01433594 29.67638672 -42.01433594 29.67638672 -43.328125 29.41796875 C-43.988125 28.42796875 -44.648125 27.43796875 -45.328125 26.41796875 C-47.53537573 26.05434057 -47.53537573 26.05434057 -49.953125 26.23046875 C-50.77039063 26.25753906 -51.58765625 26.28460938 -52.4296875 26.3125 C-53.36941406 26.36470703 -53.36941406 26.36470703 -54.328125 26.41796875 C-54.823125 27.90296875 -54.823125 27.90296875 -55.328125 29.41796875 C-67.208125 29.41796875 -79.088125 29.41796875 -91.328125 29.41796875 C-91.823125 25.95296875 -91.823125 25.95296875 -92.328125 22.41796875 C-93.05 23.36671875 -93.771875 24.31546875 -94.515625 25.29296875 C-97.5614335 28.88025432 -99.88808612 30.19279738 -104.65625 30.6328125 C-110.9056101 30.86669574 -115.20124127 30.00573459 -120.140625 25.91796875 C-122.93954659 22.38248885 -122.43001385 18.52385328 -122.390625 14.23046875 C-122.38160156 12.95816406 -122.37257813 11.68585937 -122.36328125 10.375 C-122.35167969 9.39917969 -122.34007813 8.42335938 -122.328125 7.41796875 C-125.298125 7.41796875 -128.268125 7.41796875 -131.328125 7.41796875 C-131.328125 14.67796875 -131.328125 21.93796875 -131.328125 29.41796875 C-134.958125 29.41796875 -138.588125 29.41796875 -142.328125 29.41796875 C-142.328125 22.15796875 -142.328125 14.89796875 -142.328125 7.41796875 C-145.298125 7.41796875 -148.268125 7.41796875 -151.328125 7.41796875 C-151.328125 4.11796875 -151.328125 0.81796875 -151.328125 -2.58203125 C-138.128125 -2.58203125 -124.928125 -2.58203125 -111.328125 -2.58203125 C-110.833125 6.82296875 -110.833125 6.82296875 -110.328125 16.41796875 C-109.833125 17.40796875 -109.833125 17.40796875 -109.328125 18.41796875 C-107.678125 18.41796875 -106.028125 18.41796875 -104.328125 18.41796875 C-103.998125 11.48796875 -103.668125 4.55796875 -103.328125 -2.58203125 C-95.408125 -2.58203125 -87.488125 -2.58203125 -79.328125 -2.58203125 C-79.328125 4.67796875 -79.328125 11.93796875 -79.328125 19.41796875 C-74.708125 19.41796875 -70.088125 19.41796875 -65.328125 19.41796875 C-61.94184315 12.1066784 -58.57732836 4.791161 -55.328125 -2.58203125 C-51.698125 -2.58203125 -48.068125 -2.58203125 -44.328125 -2.58203125 C-41.99479167 2.08463542 -39.66145833 6.75130208 -37.328125 11.41796875 C-36.338125 11.08796875 -35.348125 10.75796875 -34.328125 10.41796875 C-35.318125 9.92296875 -35.318125 9.92296875 -36.328125 9.41796875 C-36.328125 5.45796875 -36.328125 1.49796875 -36.328125 -2.58203125 C-32.698125 -2.58203125 -29.068125 -2.58203125 -25.328125 -2.58203125 C-24.833125 -0.60203125 -24.833125 -0.60203125 -24.328125 1.41796875 C-23.998125 0.96421875 -23.668125 0.51046875 -23.328125 0.04296875 C-16.96745481 -5.12507578 -6.5904415 -4.47840404 0 0 Z M-14.328125 6.41796875 C-13.998125 7.07796875 -13.668125 7.73796875 -13.328125 8.41796875 C-11.43279158 8.88319938 -11.43279158 8.88319938 -9.265625 9.04296875 C-7.96625 9.16671875 -6.666875 9.29046875 -5.328125 9.41796875 C-8.09035778 6.65573597 -10.53519117 6.83940584 -14.328125 6.41796875 Z M-50.328125 12.41796875 C-50.658125 13.73796875 -50.988125 15.05796875 -51.328125 16.41796875 C-50.338125 16.41796875 -49.348125 16.41796875 -48.328125 16.41796875 C-48.988125 15.09796875 -49.648125 13.77796875 -50.328125 12.41796875 Z " fill="#FCFCFC" transform="translate(195.328125,11.58203125)"/>
<path d="M0 0 C9.625 -0.25 9.625 -0.25 13 2 C13.33 1.34 13.66 0.68 14 0 C20.27 0 26.54 0 33 0 C33 1.65 33 3.3 33 5 C33.99 5 34.98 5 36 5 C36 3.35 36 1.7 36 0 C38.41734542 -0.08117951 40.83194949 -0.14056926 43.25 -0.1875 C43.93191406 -0.21263672 44.61382812 -0.23777344 45.31640625 -0.26367188 C48.45476658 -0.30937615 50.64270911 -0.19535744 53.421875 1.32421875 C55 3 55 3 56 6 C56.99 4.02 57.98 2.04 59 0 C60.98 0 62.96 0 65 0 C65.99 2.31 66.98 4.62 68 7 C68.33 4.69 68.66 2.38 69 0 C70.41623216 -0.05447047 71.83308191 -0.09300508 73.25 -0.125 C74.03890625 -0.14820313 74.8278125 -0.17140625 75.640625 -0.1953125 C78.20731941 0.0171622 79.7916067 0.71345895 82 2 C82.33 1.34 82.66 0.68 83 0 C84.98 0 86.96 0 89 0 C89 3.3 89 6.6 89 10 C89.99 10 90.98 10 92 10 C92 6.7 92 3.4 92 0 C93.79093191 -0.08086147 95.58289628 -0.13912702 97.375 -0.1875 C98.87160156 -0.23970703 98.87160156 -0.23970703 100.3984375 -0.29296875 C101.68621094 -0.14794922 101.68621094 -0.14794922 103 0 C103.99 1.485 103.99 1.485 105 3 C105.33 2.01 105.66 1.02 106 0 C107.98 0 109.96 0 112 0 C112 4.95 112 9.9 112 15 C110.02 15 108.04 15 106 15 C105.01 13.515 105.01 13.515 104 12 C103.67 12.99 103.34 13.98 103 15 C100.33333333 15 97.66666667 15 95 15 C94.3090625 15.01160156 93.618125 15.02320313 92.90625 15.03515625 C92.1121875 15.04417969 91.318125 15.05320312 90.5 15.0625 C89.7059375 15.07410156 88.911875 15.08570313 88.09375 15.09765625 C86 15 86 15 84 14 C84 13.34 84 12.68 84 12 C83.48646973 12.48895752 82.97293945 12.97791504 82.44384766 13.48168945 C79.13165923 15.53948164 76.78002037 15.34117335 72.8984375 15.29296875 C71.88192612 15.28660149 71.88192612 15.28660149 70.84487915 15.28010559 C68.6878414 15.26337148 66.53175277 15.22575565 64.375 15.1875 C62.9166803 15.17244408 61.45834578 15.15875726 60 15.14648438 C56.33305642 15.11277453 52.66664359 15.0580071 49 15 C48.34 15 47.68 15 47 15 C43.33333333 15 39.66666667 15 36 15 C36 13.35 36 11.7 36 10 C35.01 10 34.02 10 33 10 C33 11.65 33 13.3 33 15 C22 15 11 15 0 15 C0 10.05 0 5.1 0 0 Z M47 5 C47 5.66 47 6.32 47 7 C47.66 7 48.32 7 49 7 C49 6.34 49 5.68 49 5 C48.34 5 47.68 5 47 5 Z M6 6 C6 7.32 6 8.64 6 10 C6.99 9.67 7.98 9.34 9 9 C9 8.01 9 7.02 9 6 C8.01 6 7.02 6 6 6 Z M75 6 C75 7.32 75 8.64 75 10 C75.99 9.67 76.98 9.34 78 9 C77.67 8.01 77.34 7.02 77 6 C76.34 6 75.68 6 75 6 Z M54 9 C53.67 9.66 53.34 10.32 53 11 C53.66 11 54.32 11 55 11 C54.67 10.34 54.34 9.68 54 9 Z M14 11 C15 13 15 13 15 13 Z " fill="#FBFBFB" transform="translate(52,43)"/>
<path d="M0 0 C5.94 0 11.88 0 18 0 C17.67 0.99 17.34 1.98 17 3 C17.61875 2.505 18.2375 2.01 18.875 1.5 C21 0 21 0 23 0 C22.34 1.32 21.68 2.64 21 4 C21.33 4.33 21.66 4.66 22 5 C22.33 5.99 22.66 6.98 23 8 C22.01 8.495 22.01 8.495 21 9 C21.66 9.66 22.32 10.32 23 11 C23.1953125 13.8203125 23.1953125 13.8203125 23.125 17.125 C23.10695312 18.22070312 23.08890625 19.31640625 23.0703125 20.4453125 C23.04710937 21.28835937 23.02390625 22.13140625 23 23 C23.83144531 23.36351562 23.83144531 23.36351562 24.6796875 23.734375 C25.40414062 24.06953125 26.12859375 24.4046875 26.875 24.75 C27.59429687 25.07484375 28.31359375 25.3996875 29.0546875 25.734375 C31.3370674 27.21929686 32.00375898 28.50415408 33 31 C32.401875 30.690625 31.80375 30.38125 31.1875 30.0625 C28.91043228 28.89790296 28.91043228 28.89790296 26 28 C26 28.66 26 29.32 26 30 C25.01 30 24.02 30 23 30 C23.99 30.99 24.98 31.98 26 33 C25.34 34.32 24.68 35.64 24 37 C8.75 37 8.75 37 5 36 C4.34 33.69 3.68 31.38 3 29 C3.33 31.64 3.66 34.28 4 37 C2.68 36.67 1.36 36.34 0 36 C0.33 33.69 0.66 31.38 1 29 C0.01 29.33 -0.98 29.66 -2 30 C-2.33 29.34 -2.66 28.68 -3 28 C-4.98 28.99 -6.96 29.98 -9 31 C-8.80078125 29.140625 -8.80078125 29.140625 -8 27 C-5.85546875 25.734375 -5.85546875 25.734375 -3.1875 24.75 C-2.31480469 24.41484375 -1.44210938 24.0796875 -0.54296875 23.734375 C2 23 2 23 6 23 C5.67 22.01 5.34 21.02 5 20 C4.34 20.66 3.68 21.32 3 22 C2.01 21.67 1.02 21.34 0 21 C0.99 19.68 1.98 18.36 3 17 C2.01 17 1.02 17 0 17 C0.33 16.01 0.66 15.02 1 14 C1.0745356 12.7763932 1.0745356 12.7763932 0 11 C-0.1377685 7.32984725 -0.04271961 3.67388652 0 0 Z M9 19 C10 22 10 22 10 22 Z M-1 26 C-1 26.33 -1 26.66 -1 27 C1.31 27 3.62 27 6 27 C6.33 29.64 6.66 32.28 7 35 C7.66 34.34 8.32 33.68 9 33 C8.6814823 30.89179203 8.6814823 30.89179203 8 29 C9.98 29 11.96 29 14 29 C13.67 30.98 13.34 32.96 13 35 C13.99 34.67 14.98 34.34 16 34 C17.22520264 30.99152582 17.22520264 30.99152582 18 28 C19.98 27.67 21.96 27.34 24 27 C20.22220273 24.51744751 16.41695078 24.73708107 12.0625 24.8125 C11.35931641 24.81314453 10.65613281 24.81378906 9.93164062 24.81445312 C6.17009734 24.84618123 2.65671641 25.1054999 -1 26 Z M19 31 C19.33 31.99 19.66 32.98 20 34 C20.99 34.33 21.98 34.66 23 35 C22.34 33.68 21.68 32.36 21 31 C20.34 31 19.68 31 19 31 Z " fill="#DFA113" transform="translate(12,8)"/>
<path d="M0 0 C1.8125 1.9375 1.8125 1.9375 1.8125 3.9375 C1.214375 3.628125 0.61625 3.31875 0 3 C-2.27706772 1.83540296 -2.27706772 1.83540296 -5.1875 0.9375 C-5.1875 1.5975 -5.1875 2.2575 -5.1875 2.9375 C-6.1775 2.9375 -7.1675 2.9375 -8.1875 2.9375 C-7.1975 3.9275 -6.2075 4.9175 -5.1875 5.9375 C-5.8475 7.2575 -6.5075 8.5775 -7.1875 9.9375 C-22.4375 9.9375 -22.4375 9.9375 -26.1875 8.9375 C-26.8475 6.6275 -27.5075 4.3175 -28.1875 1.9375 C-27.8575 4.5775 -27.5275 7.2175 -27.1875 9.9375 C-28.5075 9.6075 -29.8275 9.2775 -31.1875 8.9375 C-30.8575 6.6275 -30.5275 4.3175 -30.1875 1.9375 C-31.1775 2.2675 -32.1675 2.5975 -33.1875 2.9375 C-33.5175 2.2775 -33.8475 1.6175 -34.1875 0.9375 C-36.1675 1.9275 -38.1475 2.9175 -40.1875 3.9375 C-39.98828125 2.07421875 -39.98828125 2.07421875 -39.1875 -0.0625 C-37.04296875 -1.29296875 -37.04296875 -1.29296875 -34.375 -2.25 C-33.50230469 -2.57355469 -32.62960938 -2.89710937 -31.73046875 -3.23046875 C-21.25327888 -6.6584894 -9.41586059 -6.09261568 0 0 Z M-32.1875 -1.0625 C-32.1875 -0.7325 -32.1875 -0.4025 -32.1875 -0.0625 C-29.8775 -0.0625 -27.5675 -0.0625 -25.1875 -0.0625 C-24.8575 2.5775 -24.5275 5.2175 -24.1875 7.9375 C-23.5275 7.2775 -22.8675 6.6175 -22.1875 5.9375 C-22.5060177 3.82929203 -22.5060177 3.82929203 -23.1875 1.9375 C-21.2075 1.9375 -19.2275 1.9375 -17.1875 1.9375 C-17.5175 3.9175 -17.8475 5.8975 -18.1875 7.9375 C-17.1975 7.6075 -16.2075 7.2775 -15.1875 6.9375 C-13.96229736 3.92902582 -13.96229736 3.92902582 -13.1875 0.9375 C-11.2075 0.6075 -9.2275 0.2775 -7.1875 -0.0625 C-10.96529727 -2.54505249 -14.77054922 -2.32541893 -19.125 -2.25 C-19.82818359 -2.24935547 -20.53136719 -2.24871094 -21.25585938 -2.24804688 C-25.01740266 -2.21631877 -28.53078359 -1.9570001 -32.1875 -1.0625 Z M-12.1875 3.9375 C-11.8575 4.9275 -11.5275 5.9175 -11.1875 6.9375 C-10.1975 7.2675 -9.2075 7.5975 -8.1875 7.9375 C-8.8475 6.6175 -9.5075 5.2975 -10.1875 3.9375 C-10.8475 3.9375 -11.5075 3.9375 -12.1875 3.9375 Z " fill="#F4F4F4" transform="translate(43.1875,35.0625)"/>
<path d="M0 0 C9.9 0 19.8 0 30 0 C30 1.98 30 3.96 30 6 C3.75 6 3.75 6 0 5 C0 3.35 0 1.7 0 0 Z " fill="#EEEEEE" transform="translate(167,43)"/>
<path d="M0 0 C10.56 0 21.12 0 32 0 C32 1.65 32 3.3 32 5 C31.443125 4.98839844 30.88625 4.97679687 30.3125 4.96484375 C26.56717695 4.92055784 23.08824256 4.98630719 19.375 5.5625 C12.99808776 6.49951568 6.39271169 5.54104982 0 5 C0 3.35 0 1.7 0 0 Z " fill="#F7F7F7" transform="translate(9,47)"/>
<path d="M0 0 C3.96 0 7.92 0 12 0 C11.67 3.63 11.34 7.26 11 11 C7.37 11 3.74 11 0 11 C0 7.37 0 3.74 0 0 Z " fill="#169C4B" transform="translate(12,8)"/>
<path d="M0 0 C1.60875 0.2784375 1.60875 0.2784375 3.25 0.5625 C6.5251541 0.94460131 7.99509027 0.93255819 11 0 C15.66666667 0 20.33333333 0 25 0 C25.33 1.65 25.66 3.3 26 5 C17.42 5 8.84 5 0 5 C0 3.35 0 1.7 0 0 Z " fill="#FBFBFB" transform="translate(12,53)"/>
<path d="M0 0 C1.98 0 3.96 0 6 0 C5.67 0.99 5.34 1.98 5 3 C5.928125 2.2575 5.928125 2.2575 6.875 1.5 C9 0 9 0 11 0 C10.34 1.32 9.68 2.64 9 4 C9.33 4.33 9.66 4.66 10 5 C10.33 5.99 10.66 6.98 11 8 C10.01 8.495 10.01 8.495 9 9 C9.33 9.66 9.66 10.32 10 11 C6.7 11 3.4 11 0 11 C0 7.37 0 3.74 0 0 Z " fill="#F3AB0C" transform="translate(24,8)"/>
<path d="M0 0 C0 0.66 0 1.32 0 2 C-0.61931396 1.98428955 -1.23862793 1.9685791 -1.87670898 1.95239258 C-4.73021005 1.8893597 -7.58356391 1.85079563 -10.4375 1.8125 C-11.41138672 1.78736328 -12.38527344 1.76222656 -13.38867188 1.73632812 C-21.5189449 1.65475348 -27.80348711 3.29873524 -35 7 C-34.80078125 5.13671875 -34.80078125 5.13671875 -34 3 C-31.85546875 1.76953125 -31.85546875 1.76953125 -29.1875 0.8125 C-28.31480469 0.48894531 -27.44210938 0.16539063 -26.54296875 -0.16796875 C-17.5500702 -3.11034569 -9.07067449 -2.37919331 0 0 Z " fill="#F5F4F3" transform="translate(38,32)"/>
<path d="M0 0 C2.64 0 5.28 0 8 0 C8 3.96 8 7.92 8 12 C4.37 11.67 0.74 11.34 -3 11 C-2.67 10.01 -2.34 9.02 -2 8 C-0.02 8 1.96 8 4 8 C4 6.02 4 4.04 4 2 C2.68 2 1.36 2 0 2 C0 1.34 0 0.68 0 0 Z " fill="#4BAD42" transform="translate(27,19)"/>
<path d="M0 0 C2.0625 0.4375 2.0625 0.4375 4 1 C3.34 1 2.68 1 2 1 C2 1.66 2 2.32 2 3 C3.32 3 4.64 3 6 3 C6 4.98 6 6.96 6 9 C4.0085944 9.38133299 2.00720923 9.71325582 0 10 C-1 9 -1 9 -1.1328125 7.1875 C-1.13023438 6.465625 -1.12765625 5.74375 -1.125 5 C-1.12757812 4.278125 -1.13015625 3.55625 -1.1328125 2.8125 C-1 1 -1 1 0 0 Z " fill="#8AC03C" transform="translate(25,18)"/>
<path d="M0 0 C1.21236328 0.02707031 1.21236328 0.02707031 2.44921875 0.0546875 C3.37154297 0.08949219 3.37154297 0.08949219 4.3125 0.125 C4.6425 1.775 4.9725 3.425 5.3125 5.125 C3.52091511 5.15196365 1.72921527 5.17137917 -0.0625 5.1875 C-1.06023438 5.19910156 -2.05796875 5.21070313 -3.0859375 5.22265625 C-5.6875 5.125 -5.6875 5.125 -7.6875 4.125 C-7.6875 3.465 -7.6875 2.805 -7.6875 2.125 C-4.48369983 -0.01086678 -3.66810033 -0.10632175 0 0 Z " fill="#F4F4F4" transform="translate(32.6875,52.875)"/>
<path d="M0 0 C2.97 0 5.94 0 9 0 C9 1.98 9 3.96 9 6 C5.7 6 2.4 6 -1 6 C-0.67 4.02 -0.34 2.04 0 0 Z " fill="#F4F4F4" transform="translate(188,43)"/>
<path d="M0 0 C2.31 0 4.62 0 7 0 C6.01 0.495 6.01 0.495 5 1 C4.27840576 2.64363134 3.60648579 4.31050386 3 6 C4.32 6.33 5.64 6.66 7 7 C6.01 7.495 6.01 7.495 5 8 C5 8.66 5 9.32 5 10 C3.35 10.33 1.7 10.66 0 11 C0 7.37 0 3.74 0 0 Z " fill="#059846" transform="translate(12,8)"/>
<path d="M0 0 C1.3125 2.125 1.3125 2.125 2 4 C1.401875 3.690625 0.80375 3.38125 0.1875 3.0625 C-2.08956772 1.89790296 -2.08956772 1.89790296 -5 1 C-5 1.66 -5 2.32 -5 3 C-6.32 2.67 -7.64 2.34 -9 2 C-9.33 2.99 -9.66 3.98 -10 5 C-11.65 5.33 -13.3 5.66 -15 6 C-14.5 3.6875 -14.5 3.6875 -13 1 C-8.62887334 -1.69143529 -4.51064457 -3.05131839 0 0 Z " fill="#E5E5E5" transform="translate(43,35)"/>
<path d="M0 0 C1.32 0 2.64 0 4 0 C3.67 1.98 3.34 3.96 3 6 C3.66 6 4.32 6 5 6 C3.84826645 8.46800047 2.95216435 10.04783565 1 12 C0.01 11.67 -0.98 11.34 -2 11 C-1.01 9.68 -0.02 8.36 1 7 C0.01 7 -0.98 7 -2 7 C-1.67 6.01 -1.34 5.02 -1 4 C-1 3.67 -1 3.34 -1 3 C-0.67 2.01 -0.34 1.02 0 0 Z " fill="#E3B80A" transform="translate(14,18)"/>
<path d="M0 0 C5.63281599 -0.2396943 10.54538831 0.61470179 16 2 C16 2.66 16 3.32 16 4 C10.39 3.67 4.78 3.34 -1 3 C-0.67 2.01 -0.34 1.02 0 0 Z " fill="#FAFCF9" transform="translate(22,30)"/>
<path d="M0 0 C1.32 0.99 2.64 1.98 4 3 C3.34 4.32 2.68 5.64 2 7 C-1.19902639 7.08886184 -3.92677456 6.91058531 -7 6 C-6.67 5.01 -6.34 4.02 -6 3 C-3.9375 2.3125 -3.9375 2.3125 -2 2 C-2 2.66 -2 3.32 -2 4 C-1.34 3.67 -0.68 3.34 0 3 C0 2.01 0 1.02 0 0 Z " fill="#EEEEEE" transform="translate(34,38)"/>
<path d="M0 0 C2.76276177 0.52268466 5.3260876 1.10869587 8 2 C8.33 2.99 8.66 3.98 9 5 C1.25 6.125 1.25 6.125 -1 5 C-0.67 3.35 -0.34 1.7 0 0 Z " fill="#EEEEEE" transform="translate(23,47)"/>
<path d="M0 0 C0 3.96 0 7.92 0 12 C-1.32 11.34 -2.64 10.68 -4 10 C-3.01 10 -2.02 10 -1 10 C-1.66 9.67 -2.32 9.34 -3 9 C-3 6.36 -3 3.72 -3 1 C-1 0 -1 0 0 0 Z " fill="#119B3E" transform="translate(35,19)"/>
<path d="M0 0 C1.98 0 3.96 0 6 0 C5.67 0.99 5.34 1.98 5 3 C5.928125 2.2575 5.928125 2.2575 6.875 1.5 C9 0 9 0 11 0 C9.95125002 2.62187494 9.35068687 3.79371361 6.875 5.25 C6.25625 5.4975 5.6375 5.745 5 6 C4.34 5.01 3.68 4.02 3 3 C2.01 2.67 1.02 2.34 0 2 C0 1.34 0 0.68 0 0 Z " fill="#F1C905" transform="translate(24,8)"/>
<path d="M0 0 C2.97 0.495 2.97 0.495 6 1 C6 1.66 6 2.32 6 3 C6.66 3.66 7.32 4.32 8 5 C5.36 5 2.72 5 0 5 C0 3.35 0 1.7 0 0 Z " fill="#F5F5F5" transform="translate(12,53)"/>
<path d="M0 0 C1.2065625 0.0309375 1.2065625 0.0309375 2.4375 0.0625 C1.5625 4.8125 1.5625 4.8125 0.4375 7.0625 C-0.2225 7.0625 -0.8825 7.0625 -1.5625 7.0625 C-2.2225 5.0825 -2.8825 3.1025 -3.5625 1.0625 C-2.5625 0.0625 -2.5625 0.0625 0 0 Z " fill="#93D2A8" transform="translate(18.5625,10.9375)"/>
<path d="M0 0 C0.66 1.32 1.32 2.64 2 4 C3.65 3.67 5.3 3.34 7 3 C7 3.66 7 4.32 7 5 C-0.75 5.125 -0.75 5.125 -3 4 C-3 3.34 -3 2.68 -3 2 C-2.01 1.34 -1.02 0.68 0 0 Z " fill="#E5E5E5" transform="translate(28,53)"/>
<path d="M0 0 C1.32 0 2.64 0 4 0 C4 1.65 4 3.3 4 5 C2.68 5 1.36 5 0 5 C0 3.35 0 1.7 0 0 Z " fill="#D3EAC7" transform="translate(27,22)"/>
<path d="M0 0 C1.65 0.33 3.3 0.66 5 1 C5 1.99 5 2.98 5 4 C3.02 4 1.04 4 -1 4 C-0.67 2.68 -0.34 1.36 0 0 Z " fill="#E3B508" transform="translate(19,26)"/>
<path d="M0 0 C0.99 0 1.98 0 3 0 C1.84826645 2.46800047 0.95216435 4.04783565 -1 6 C-1.99 5.67 -2.98 5.34 -4 5 C-2.1875 2.5 -2.1875 2.5 0 0 Z " fill="#EEC505" transform="translate(16,24)"/>
<path d="M0 0 C0.66 0.33 1.32 0.66 2 1 C2 2.65 2 4.3 2 6 C0.35 6 -1.3 6 -3 6 C-2.01 4.02 -1.02 2.04 0 0 Z " fill="#3DAB38" transform="translate(21,13)"/>
<path d="M0 0 C4.67692308 1.47692308 4.67692308 1.47692308 6.3125 4.125 C6.539375 4.74375 6.76625 5.3625 7 6 C4.04590299 4.62845496 1.55991624 3.01136276 -1 1 C-0.67 0.67 -0.34 0.34 0 0 Z " fill="#EDEDED" transform="translate(38,33)"/>
<path d="M0 0 C1.32 0.99 2.64 1.98 4 3 C3.34 4.32 2.68 5.64 2 7 C1.01 6.34 0.02 5.68 -1 5 C-0.34 5 0.32 5 1 5 C0.67 3.35 0.34 1.7 0 0 Z " fill="#F7F7F7" transform="translate(34,38)"/>
</svg>
